<svg width="100" height="70" viewBox="0 0 100 70" fill="none" xmlns="http://www.w3.org/2000/svg">
<path d="M80.7743 41.7847C78.8331 44.8091 74.4386 44.8736 72.428 41.9072L61.3231 25.524C59.0918 22.2321 61.4244 17.7684 65.4065 17.7099L87.2326 17.3896C91.2147 17.3312 93.6499 21.7249 91.4957 25.0812L80.7743 41.7847Z" fill="#FCFFF7"/>
<path d="M19.025 21.2678C20.9611 17.9973 25.6939 17.9973 27.6301 21.2678L39.0618 40.5779C41.035 43.9109 38.6325 48.125 34.7592 48.125H11.8958C8.02251 48.125 5.62007 43.9109 7.59325 40.5779L19.025 21.2678Z" fill="#FCFFF7"/>
<rect x="17.6252" width="61.1699" height="12.8333" rx="4" fill="#FCFFF7"/>
<rect x="19.6988" y="57.1667" width="57.0228" height="12.8333" rx="4" fill="#FCFFF7"/>
<rect x="18.662" y="46.6667" width="9.33101" height="23.3333" rx="4" fill="#FCFFF7"/>
<rect x="71.5377" width="9.33101" height="21" rx="4" fill="#FCFFF7"/>
</svg>
