<svg width="327" height="558" viewBox="0 0 327 558" fill="none" xmlns="http://www.w3.org/2000/svg">
<rect width="36.25" height="55.4903" transform="matrix(0.00123201 0.999999 -0.999999 0.00125475 55.9648 316.415)" fill="#91FFEB" fill-opacity="0.5"/>
<rect width="36.25" height="55.4903" transform="matrix(0.00123201 0.999999 -0.999999 0.00125475 55.9202 280.165)" fill="#91FFEB" fill-opacity="0.5"/>
<rect width="36.25" height="55.4903" transform="matrix(0.00123201 0.999999 -0.999999 0.00125475 56.0541 388.915)" fill="#91FFEB" fill-opacity="0.5"/>
<rect width="36.25" height="55.4903" transform="matrix(0.00123201 0.999999 -0.999999 0.00125475 56.0095 352.665)" fill="#91FFEB" fill-opacity="0.5"/>
<rect width="51.055" height="49.3674" transform="matrix(0.003117 0.999995 -0.999995 0.00317453 185.124 404.157)" fill="#FE26CF" fill-opacity="0.3"/>
<rect width="51.055" height="49.3674" transform="matrix(0.003117 0.999995 -0.999995 0.00317453 185.283 455.212)" fill="#FE26CF" fill-opacity="0.3"/>
<rect width="51.055" height="49.3674" transform="matrix(0.003117 0.999995 -0.999995 0.00317453 185.442 506.266)" fill="#FE26CF" fill-opacity="0.3"/>
<rect width="51.055" height="49.3674" transform="matrix(0.003117 0.999995 -0.999995 0.00317453 234.65 455.055)" fill="#FE26CF" fill-opacity="0.3"/>
<rect x="160.529" y="331" width="48.554" height="49" fill="#FAFE26" fill-opacity="0.3"/>
<rect x="209.083" y="282" width="48.554" height="49" fill="#FAFE26" fill-opacity="0.3"/>
<rect x="257.637" y="282" width="48.554" height="49" fill="#FAFE26" fill-opacity="0.3"/>
<rect x="209.083" y="331" width="48.554" height="49" fill="#FAFE26" fill-opacity="0.3"/>
<rect x="79.2757" y="101" width="47.5631" height="49.3333" fill="#EA97FF" fill-opacity="0.3"/>
<rect x="79.2757" y="199.667" width="47.5631" height="49.3333" fill="#EA97FF" fill-opacity="0.3"/>
<rect x="126.839" y="199.667" width="47.5631" height="49.3333" fill="#EA97FF" fill-opacity="0.3"/>
<rect x="79.2757" y="150.333" width="47.5631" height="49.3333" fill="#EA97FF" fill-opacity="0.3"/>
<rect width="51.055" height="53.3602" transform="matrix(0.003117 0.999995 -0.999995 0.00317453 233.707 0.169434)" fill="#FE26CF" fill-opacity="0.3"/>
<rect width="51.055" height="53.3602" transform="matrix(0.003117 0.999995 -0.999995 0.00317453 233.866 51.2244)" fill="#FE26CF" fill-opacity="0.3"/>
<rect width="51.055" height="53.3602" transform="matrix(0.003117 0.999995 -0.999995 0.00317453 234.025 102.279)" fill="#FE26CF" fill-opacity="0.3"/>
<rect width="51.055" height="53.3602" transform="matrix(0.003117 0.999995 -0.999995 0.00317453 287.226 51.0549)" fill="#FE26CF" fill-opacity="0.3"/>
<rect x="233.856" y="506" width="46.5722" height="51" fill="#FEA826" fill-opacity="0.3"/>
<rect x="280.428" y="506" width="46.5722" height="51" fill="#FEA826" fill-opacity="0.3"/>
<rect x="233.856" y="455" width="46.5722" height="51" fill="#FEA826" fill-opacity="0.3"/>
</svg>
